HIERARCHY
ROOT Hips
{
 OFFSET 0.000000 0.000000 0.000000
 CHANNELS 6 Xposition Yposition Zposition Yrotation Xrotation Zrotation
 JOINT Chest
 {
  OFFSET 0.000000 14.634200 -0.016200
  CHANNELS 3 Yrotation Xrotation Zrotation
  JOINT Chest2
  {
   OFFSET 0.000000 8.932900 0.033000
   CHANNELS 3 Yrotation Xrotation Zrotation
   JOINT Chest3
   {
    OFFSET 0.000000 8.892300 0.000000
    CHANNELS 3 Yrotation Xrotation Zrotation
    JOINT Chest4
    {
     OFFSET 0.000000 8.883200 0.000000
     CHANNELS 3 Yrotation Xrotation Zrotation
     JOINT Neck
     {
      OFFSET 0.000000 13.173600 0.000000
      CHANNELS 3 Yrotation Xrotation Zrotation
      JOINT Head
      {
       OFFSET 0.000000 8.324600 0.069800
       CHANNELS 3 Yrotation Xrotation Zrotation
       End Site
       {
        OFFSET 0.000000 15.692400 0.036900
       }
      }
     }
     JOINT RightCollar
     {
      OFFSET -2.619200 8.772200 0.000000
      CHANNELS 3 Yrotation Xrotation Zrotation
      JOINT RightShoulder
      {
       OFFSET -12.922000 0.000000 0.000000
       CHANNELS 3 Yrotation Xrotation Zrotation
       JOINT RightElbow
       {
        OFFSET 0.000000 -27.880900 0.000000
        CHANNELS 3 Yrotation Xrotation Zrotation
        JOINT RightWrist
        {
         OFFSET 0.000000 -22.758700 0.008200
         CHANNELS 3 Yrotation Xrotation Zrotation
         End Site
         {
          OFFSET 0.000000 -16.965000 0.000000
         }
        }
       }
      }
     }
     JOINT LeftCollar
     {
      OFFSET 2.619200 8.772200 0.000000
      CHANNELS 3 Yrotation Xrotation Zrotation
      JOINT LeftShoulder
      {
       OFFSET 12.922000 0.000000 0.000000
       CHANNELS 3 Yrotation Xrotation Zrotation
       JOINT LeftElbow
       {
        OFFSET 0.000000 -27.880900 0.000000
        CHANNELS 3 Yrotation Xrotation Zrotation
        JOINT LeftWrist
        {
         OFFSET 0.000000 -22.758700 0.008200
         CHANNELS 3 Yrotation Xrotation Zrotation
         End Site
         {
          OFFSET 0.000000 -16.965000 0.000000
         }
        }
       }
      }
     }
    }
   }
  }
 }
 JOINT RightHip
 {
  OFFSET -12.026800 0.080100 0.008100
  CHANNELS 3 Yrotation Xrotation Zrotation
  JOINT RightKnee
  {
   OFFSET 0.000000 -42.600800 -0.000200
   CHANNELS 3 Yrotation Xrotation Zrotation
   JOINT RightAnkle
   {
    OFFSET 0.000000 -38.219300 0.054300
    CHANNELS 3 Yrotation Xrotation Zrotation
    JOINT RightToe
    {
     OFFSET 0.000000 -9.685800 15.804700
     CHANNELS 3 Yrotation Xrotation Zrotation
     End Site
     {
      OFFSET 0.000000 -1.422300 5.761700
     }
    }
   }
  }
 }
 JOINT LeftHip
 {
  OFFSET 12.026800 0.080100 0.008100
  CHANNELS 3 Yrotation Xrotation Zrotation
  JOINT LeftKnee
  {
   OFFSET 0.000000 -42.600800 -0.000200
   CHANNELS 3 Yrotation Xrotation Zrotation
   JOINT LeftAnkle
   {
    OFFSET 0.000000 -38.219300 0.054300
    CHANNELS 3 Yrotation Xrotation Zrotation
    JOINT LeftToe
    {
     OFFSET 0.000000 -9.685800 15.804700
     CHANNELS 3 Yrotation Xrotation Zrotation
     End Site
     {
      OFFSET 0.000000 -1.422300 5.761700
     }
    }
   }
  }
 }
}
MOTION
Frames: 7
Frame Time: 0.008333
0.000000 90.254400 0.000000 0.000000 -5.767877 0.000000 0.000000 11.653817 0.000000 0.000000 -5.885947 0.000000 0.000000 -0.000000 0.000000 0.000000 -0.000000 0.000000 0.000000 12.528835 0.000000 0.000000 0.711642 0.000000 0.000000 -0.000000 0.000000 0.000000 0.000000 -90.000000 0.000000 -2.309062 0.000000 0.000000 2.309062 0.000000 0.000000 -0.000000 0.000000 0.000000 -0.000000 90.000000 0.000000 -2.309062 0.000000 0.000000 2.309062 0.000000 0.000000 8.520406 0.000000 0.000000 1.905762 0.000000 -0.000000 -4.658285 0.000000 0.000000 -0.000000 0.000000 0.000000 8.520406 0.000000 0.000000 1.905762 0.000000 -0.000000 -4.658285 0.000000 0.000000 -0.000000 0.000000
-6.001534 151.985453 13.268639 170.486781 -18.730395 -1.500585 -0.301954 15.483187 1.080120 -0.034869 1.469772 0.160725 -0.046306 2.485817 0.265373 -0.111949 13.822703 1.474798 -0.536312 17.282704 -1.935636 -0.137576 -7.520168 -1.902772 5.458369 -0.689756 -0.107117 17.359340 -19.887688 -11.781162 58.220498 -46.058936 -30.890846 11.892294 1.620388 -36.242147 -9.154918 0.372868 -1.414661 -0.268372 -20.541333 6.480686 -12.039826 -58.451222 -5.078393 -9.864284 8.599689 8.305598 -1.960758 -54.121492 11.127387 -52.432255 82.180630 -58.111535 -6.296984 -14.855161 10.407401 0.247120 -0.444496 0.152435 22.729690 -45.560754 -22.342843 49.243508 74.647737 65.800561 6.845551 -14.642644 -7.565557 0.329849 0.504530 0.197860
-7.052300 144.748343 14.166223 170.445949 -18.750690 -1.685192 -0.204691 15.508140 1.284721 -0.025593 1.485002 0.156903 -0.051687 2.477928 0.268655 -0.109106 13.824487 1.475078 -0.553125 17.318046 -1.927087 -0.149998 -7.521792 -1.892701 5.449927 -0.683673 -0.105157 17.357710 -19.886179 -11.786032 58.228656 -46.102513 -30.909500 11.883171 1.586172 -36.301047 -9.167135 0.372690 -1.406970 -0.264989 -20.548844 6.480371 -12.025379 -58.471427 -5.080448 -9.846688 8.555387 8.296986 -2.195130 -54.123079 11.473255 -52.690999 82.197127 -58.365444 -6.218767 -15.025733 10.447967 0.143008 -0.294715 0.087576 22.564914 -45.607918 -22.055358 49.163460 74.640281 65.718460 6.961447 -14.433832 -7.510375 0.193170 0.321768 0.118520
-7.919768 138.787937 14.905686 170.430237 -18.761446 -1.835186 -0.143114 15.523161 1.444869 -0.024534 1.489196 0.156380 -0.049255 2.478693 0.267328 -0.105598 13.832095 1.471313 -0.565456 17.324030 -1.915304 -0.160481 -7.506769 -1.883487 5.440734 -0.677629 -0.097981 17.359231 -19.899165 -11.792638 58.228133 -46.125292 -30.915880 11.855079 1.543529 -36.355502 -9.179261 0.370183 -1.393697 -0.270501 -20.536466 6.484022 -11.949649 -58.554519 -5.114576 -9.827680 8.503228 8.290555 -2.374782 -54.130616 11.732621 -52.927572 82.205805 -58.586406 -6.168383 -15.164262 10.471336 0.075913 -0.171484 0.046492 22.422902 -45.648113 -21.831709 49.098187 74.635312 65.653823 7.033338 -14.272367 -7.467651 0.093723 0.179355 0.057481
-8.547679 134.482495 15.440586 170.430674 -18.760371 -1.942720 -0.107072 15.536992 1.555261 -0.029393 1.481153 0.158246 -0.045090 2.479568 0.265557 -0.108781 13.833713 1.470330 -0.573454 17.337412 -1.907984 -0.170428 -7.492980 -1.875228 5.438671 -0.660241 -0.097636 17.360241 -19.916932 -11.797522 58.223170 -46.148367 -30.917566 11.819242 1.494203 -36.409879 -9.192107 0.389783 -1.390495 -0.267739 -20.537930 6.488305 -11.881178 -58.623009 -5.144982 -9.811371 8.456253 8.297736 -2.523693 -54.142260 11.921917 -53.069940 82.212024 -58.728498 -6.134223 -15.259050 10.488796 0.029636 -0.083162 0.018154 22.311497 -45.686285 -21.678374 49.056741 74.637462 65.611713 7.076502 -14.161127 -7.445308 0.035472 0.081286 0.021748
-8.949540 131.762503 15.777961 170.442240 -18.752126 -1.993827 -0.103712 15.541862 1.602844 -0.029289 1.478977 0.158430 -0.046596 2.479100 0.266375 -0.108087 13.826464 1.470809 -0.579497 17.351236 -1.904770 -0.173520 -7.492029 -1.872757 5.438473 -0.635010 -0.102780 17.355162 -19.923852 -11.795545 58.172460 -46.230374 -30.894292 11.841651 1.456425 -36.466160 -9.202688 0.416046 -1.391492 -0.258263 -20.542440 6.492900 -11.815389 -58.681277 -5.182123 -9.787081 8.407953 8.313633 -2.603346 -54.156932 12.008692 -53.167679 82.215241 -58.827562 -6.124622 -15.301172 10.492041 0.014904 -0.045129 0.009131 22.248276 -45.710335 -21.611237 49.030327 74.637840 65.580184 7.096464 -14.109793 -7.438925 0.016454 0.038341 0.010086
-9.168018 130.266090 15.963912 170.445870 -18.741713 -2.031344 -0.096729 15.537224 1.639710 -0.030556 1.488855 0.156868 -0.042743 2.473197 0.266859 -0.108275 13.826785 1.471349 -0.582625 17.346790 -1.901352 -0.181170 -7.480301 -1.867061 5.436545 -0.631113 -0.104465 17.344879 -19.917005 -11.793120 58.129907 -46.301669 -30.870172 11.853153 1.397999 -36.539197 -9.213343 0.454783 -1.388130 -0.247475 -20.562449 6.494314 -11.745489 -58.738423 -5.223886 -9.750205 8.355101 8.338334 -2.659813 -54.169976 12.074511 -53.212560 82.214770 -58.874783 -6.110871 -15.333214 10.493496 0.003529 -0.016043 0.002163 22.210917 -45.732021 -21.563881 49.016214 74.638147 65.564137 7.109457 -14.078594 -7.434127 0.002898 0.010239 0.001776
